<svg xmlns="http://www.w3.org/2000/svg" viewBox="0 0 800 420" preserveAspectRatio="xMidYMid slice">
<rect width="800" height="420" fill="#0D0D12"/><line x1="70" y1="90" x2="762" y2="90" stroke="rgba(255,255,255,0.05)"/><line x1="70" y1="152" x2="762" y2="152" stroke="rgba(255,255,255,0.05)"/><line x1="70" y1="214" x2="762" y2="214" stroke="rgba(255,255,255,0.05)"/><line x1="70" y1="276" x2="762" y2="276" stroke="rgba(255,255,255,0.05)"/><line x1="70" y1="338" x2="762" y2="338" stroke="rgba(255,255,255,0.05)"/>
<line x1="70" y1="223" x2="762" y2="223" stroke="rgba(233,229,221,0.16)" stroke-dasharray="4 6"/>
<line x1="70" y1="86" x2="70" y2="362" stroke="rgba(255,92,51,0.22)" stroke-dasharray="2 4"/><circle cx="70" cy="92" r="4" fill="#FF5C33"/><line x1="168" y1="86" x2="168" y2="362" stroke="rgba(255,92,51,0.22)" stroke-dasharray="2 4"/><circle cx="168" cy="92" r="4" fill="#FF5C33"/><line x1="312" y1="86" x2="312" y2="362" stroke="rgba(255,92,51,0.22)" stroke-dasharray="2 4"/><circle cx="312" cy="92" r="4" fill="#FF5C33"/><line x1="498" y1="86" x2="498" y2="362" stroke="rgba(255,92,51,0.22)" stroke-dasharray="2 4"/><circle cx="498" cy="92" r="4" fill="#FF5C33"/><line x1="720" y1="86" x2="720" y2="362" stroke="rgba(255,92,51,0.22)" stroke-dasharray="2 4"/><circle cx="720" cy="92" r="4" fill="#FF5C33"/>
<polyline fill="none" stroke="#FF5C33" stroke-width="2.6" stroke-linejoin="round" points="70.0,92.0 75.0,120.0 80.0,144.6 85.0,166.4 90.0,185.6 95.0,202.6 100.0,217.6 105.0,230.8 110.0,242.4 115.0,252.7 120.0,261.8 125.0,269.8 130.0,276.9 135.0,283.1 140.0,288.6 145.0,293.5 150.0,297.8 155.0,301.6 160.0,304.9 165.0,307.9 168.0,92.0 173.0,108.0 178.0,122.9 183.0,136.8 188.0,149.7 193.0,161.8 198.0,173.1 203.0,183.6 208.0,193.4 213.0,202.6 218.0,211.2 223.0,219.1 228.0,226.6 233.0,233.5 238.0,240.0 243.0,246.0 248.0,251.7 253.0,256.9 258.0,261.8 263.0,266.4 268.0,270.7 273.0,274.6 278.0,278.3 283.0,281.8 288.0,285.0 293.0,288.1 298.0,290.9 303.0,293.5 308.0,296.0 312.0,92.0 317.0,102.0 322.0,111.7 327.0,120.9 332.0,129.7 337.0,138.1 342.0,146.2 347.0,154.0 352.0,161.4 357.0,168.5 362.0,175.3 367.0,181.9 372.0,188.1 377.0,194.1 382.0,199.8 387.0,205.3 392.0,210.6 397.0,215.6 402.0,220.4 407.0,225.1 412.0,229.5 417.0,233.7 422.0,237.8 427.0,241.7 432.0,245.4 437.0,249.0 442.0,252.4 447.0,255.7 452.0,258.8 457.0,261.8 462.0,264.7 467.0,267.4 472.0,270.1 477.0,272.6 482.0,275.0 487.0,277.4 492.0,279.6 497.0,281.7 498.0,92.0 503.0,98.7 508.0,105.1 513.0,111.4 518.0,117.6 523.0,123.5 528.0,129.3 533.0,134.9 538.0,140.4 543.0,145.7 548.0,150.9 553.0,155.9 558.0,160.8 563.0,165.5 568.0,170.1 573.0,174.6 578.0,178.9 583.0,183.2 588.0,187.3 593.0,191.3 598.0,195.2 603.0,198.9 608.0,202.6 613.0,206.2 618.0,209.6 623.0,213.0 628.0,216.3 633.0,219.5 638.0,222.6 643.0,225.6 648.0,228.5 653.0,231.3 658.0,234.1 663.0,236.8 668.0,239.4 673.0,241.9 678.0,244.4 683.0,246.8 688.0,249.1 693.0,251.4 698.0,253.6 703.0,255.7 708.0,257.8 713.0,259.8 718.0,261.8 720.0,92.0 725.0,94.4 730.0,96.7 735.0,99.0 740.0,101.3 745.0,103.6 750.0,105.9 755.0,108.1 760.0,110.3"/>
</svg>