<svg xmlns="http://www.w3.org/2000/svg" viewBox="0 0 800 420" preserveAspectRatio="xMidYMid slice">
<rect width="800" height="420" fill="#0D0D12"/><line x1="70" y1="80" x2="762" y2="80" stroke="rgba(255,255,255,0.05)"/><line x1="70" y1="150" x2="762" y2="150" stroke="rgba(255,255,255,0.05)"/><line x1="70" y1="220" x2="762" y2="220" stroke="rgba(255,255,255,0.05)"/><line x1="70" y1="290" x2="762" y2="290" stroke="rgba(255,255,255,0.05)"/><line x1="70" y1="360" x2="762" y2="360" stroke="rgba(255,255,255,0.05)"/>
<path d="M 432.0,161.7 438.0,162.0 444.0,162.4 450.0,162.7 456.0,163.0 462.0,163.3 468.0,163.6 474.0,163.8 480.0,164.0 486.0,164.1 492.0,164.2 498.0,164.2 504.0,164.2 510.0,164.1 516.0,163.9 522.0,163.7 528.0,163.5 534.0,163.2 540.0,162.8 546.0,162.4 552.0,161.9 558.0,161.3 564.0,160.7 570.0,160.1 576.0,159.4 582.0,158.6 588.0,157.8 594.0,156.9 600.0,156.0 606.0,155.0 612.0,154.0 618.0,152.9 624.0,151.8 630.0,150.7 636.0,149.6 642.0,148.4 648.0,147.2 654.0,146.0 660.0,144.8 666.0,143.5 672.0,142.3 678.0,141.1 684.0,139.8 690.0,138.6 696.0,137.4 702.0,136.2 708.0,135.0 714.0,133.9 720.0,132.8 726.0,131.7 732.0,130.6 738.0,129.6 744.0,128.6 750.0,127.7 756.0,126.8 762.0,126.0 L 762.0,308.0 756.0,305.8 750.0,303.6 744.0,301.5 738.0,299.4 732.0,297.3 726.0,295.3 720.0,293.4 714.0,291.4 708.0,289.5 702.0,287.7 696.0,285.8 690.0,284.0 684.0,282.1 678.0,280.3 672.0,278.5 666.0,276.7 660.0,274.8 654.0,273.0 648.0,271.2 642.0,269.3 636.0,267.4 630.0,265.5 624.0,263.6 618.0,261.6 612.0,259.6 606.0,257.6 600.0,255.5 594.0,253.3 588.0,251.2 582.0,248.9 576.0,246.7 570.0,244.3 564.0,241.9 558.0,239.5 552.0,237.0 546.0,234.4 540.0,231.8 534.0,229.1 528.0,226.4 522.0,223.6 516.0,220.7 510.0,217.8 504.0,214.8 498.0,211.8 492.0,208.7 486.0,205.6 480.0,202.4 474.0,199.2 468.0,195.9 462.0,192.6 456.0,189.3 450.0,185.9 444.0,182.5 438.0,179.1 432.0,175.7 Z" fill="rgba(255,92,51,0.12)"/>
<path d="M 432.0,165.2 438.0,166.3 444.0,167.4 450.0,168.5 456.0,169.6 462.0,170.6 468.0,171.7 474.0,172.6 480.0,173.6 486.0,174.4 492.0,175.3 498.0,176.1 504.0,176.8 510.0,177.5 516.0,178.1 522.0,178.7 528.0,179.2 534.0,179.7 540.0,180.1 546.0,180.4 552.0,180.7 558.0,180.9 564.0,181.0 570.0,181.1 576.0,181.2 582.0,181.2 588.0,181.1 594.0,181.0 600.0,180.8 606.0,180.6 612.0,180.4 618.0,180.1 624.0,179.8 630.0,179.4 636.0,179.0 642.0,178.6 648.0,178.2 654.0,177.8 660.0,177.3 666.0,176.8 672.0,176.4 678.0,175.9 684.0,175.4 690.0,175.0 696.0,174.5 702.0,174.1 708.0,173.7 714.0,173.3 720.0,172.9 726.0,172.6 732.0,172.3 738.0,172.0 744.0,171.8 750.0,171.7 756.0,171.6 762.0,171.5 L 762.0,262.5 756.0,261.0 750.0,259.6 744.0,258.3 738.0,256.9 732.0,255.7 726.0,254.4 720.0,253.2 714.0,252.1 708.0,250.9 702.0,249.8 696.0,248.7 690.0,247.6 684.0,246.6 678.0,245.5 672.0,244.4 666.0,243.4 660.0,242.3 654.0,241.3 648.0,240.2 642.0,239.1 636.0,238.0 630.0,236.8 624.0,235.6 618.0,234.4 612.0,233.2 606.0,231.9 600.0,230.6 594.0,229.2 588.0,227.8 582.0,226.4 576.0,224.8 570.0,223.3 564.0,221.6 558.0,220.0 552.0,218.2 546.0,216.4 540.0,214.5 534.0,212.6 528.0,210.6 522.0,208.6 516.0,206.5 510.0,204.4 504.0,202.1 498.0,199.9 492.0,197.6 486.0,195.2 480.0,192.8 474.0,190.3 468.0,187.8 462.0,185.3 456.0,182.7 450.0,180.1 444.0,177.5 438.0,174.8 432.0,172.2 Z" fill="rgba(255,92,51,0.20)"/>
<polyline fill="none" stroke="rgba(255,255,255,0.09)" stroke-width="1" points="432.0,171.5 440.0,173.9 448.0,175.6 456.0,176.7 464.0,177.2 472.0,177.2 480.0,176.7 488.0,176.2 496.0,175.7 504.0,175.6 512.0,176.1 520.0,177.3 528.0,179.6 536.0,182.8 544.0,187.1 552.0,192.4 560.0,198.5 568.0,205.1 576.0,212.0 584.0,218.8 592.0,225.1 600.0,230.5 608.0,234.7 616.0,237.3 624.0,238.0 632.0,236.9 640.0,233.8 648.0,228.9 656.0,222.3 664.0,214.6 672.0,206.0 680.0,197.1 688.0,188.5 696.0,180.8 704.0,174.5 712.0,170.1 720.0,168.1 728.0,168.7 736.0,172.1 744.0,178.2 752.0,186.9 760.0,197.7"/><polyline fill="none" stroke="rgba(255,255,255,0.09)" stroke-width="1" points="432.0,170.3 440.0,174.0 448.0,177.8 456.0,181.5 464.0,184.9 472.0,187.9 480.0,190.4 488.0,192.1 496.0,193.2 504.0,193.4 512.0,193.0 520.0,192.0 528.0,190.5 536.0,188.9 544.0,187.2 552.0,185.7 560.0,184.7 568.0,184.4 576.0,185.1 584.0,186.7 592.0,189.4 600.0,193.2 608.0,197.9 616.0,203.4 624.0,209.5 632.0,215.8 640.0,222.0 648.0,227.8 656.0,232.8 664.0,236.6 672.0,239.0 680.0,239.7 688.0,238.8 696.0,236.1 704.0,231.8 712.0,226.1 720.0,219.3 728.0,211.8 736.0,204.0 744.0,196.5 752.0,189.9 760.0,184.5"/><polyline fill="none" stroke="rgba(255,255,255,0.09)" stroke-width="1" points="432.0,172.8 440.0,177.2 448.0,181.4 456.0,185.2 464.0,188.4 472.0,190.6 480.0,191.9 488.0,192.0 496.0,191.0 504.0,189.2 512.0,186.5 520.0,183.4 528.0,180.1 536.0,177.1 544.0,174.7 552.0,173.3 560.0,173.2 568.0,174.7 576.0,177.9 584.0,182.8 592.0,189.4 600.0,197.3 608.0,206.3 616.0,216.0 624.0,225.7 632.0,234.9 640.0,243.0 648.0,249.6 656.0,254.0 664.0,256.0 672.0,255.2 680.0,251.7 688.0,245.4 696.0,236.7 704.0,226.0 712.0,213.9 720.0,201.1 728.0,188.3 736.0,176.5 744.0,166.4 752.0,158.7 760.0,154.2"/><polyline fill="none" stroke="rgba(255,255,255,0.09)" stroke-width="1" points="432.0,172.8 440.0,175.6 448.0,177.5 456.0,178.7 464.0,179.0 472.0,178.5 480.0,177.4 488.0,176.0 496.0,174.5 504.0,173.2 512.0,172.5 520.0,172.7 528.0,174.0 536.0,176.6 544.0,180.5 552.0,185.9 560.0,192.5 568.0,200.1 576.0,208.4 584.0,217.0 592.0,225.3 600.0,233.0 608.0,239.4 616.0,244.1 624.0,246.8 632.0,247.1 640.0,245.0 648.0,240.4 656.0,233.5 664.0,224.7 672.0,214.4 680.0,203.1 688.0,191.7 696.0,180.7 704.0,171.0 712.0,163.3 720.0,158.1 728.0,156.0 736.0,157.3 744.0,162.1 752.0,170.4 760.0,181.8"/>
<polyline fill="none" stroke="#E9E5DD" stroke-width="2.2" points="70.0,181.8 76.0,176.5 82.0,172.7 88.0,171.1 94.0,170.9 100.0,170.2 106.0,167.7 112.0,163.1 118.0,158.1 124.0,154.4 130.0,153.0 136.0,153.1 142.0,153.1 148.0,151.3 154.0,147.5 160.0,143.1 166.0,139.8 172.0,138.8 178.0,139.5 184.0,140.3 190.0,139.5 196.0,136.7 202.0,133.0 208.0,130.3 214.0,129.9 220.0,131.3 226.0,133.1 232.0,133.4 238.0,131.7 244.0,128.9 250.0,126.9 256.0,127.0 262.0,129.2 268.0,132.0 274.0,133.4 280.0,132.7 286.0,130.8 292.0,129.4 298.0,130.2 304.0,133.0 310.0,136.5 316.0,138.9 322.0,139.2 328.0,138.0 334.0,137.2 340.0,138.3 346.0,141.5 352.0,145.6 358.0,148.8 364.0,149.8 370.0,149.2 376.0,148.7 382.0,149.9 388.0,153.3 394.0,157.7 400.0,161.3 406.0,162.8 412.0,162.5 418.0,162.0 424.0,163.1 430.0,166.4"/>
<polyline fill="none" stroke="#FF5C33" stroke-width="2.6" stroke-dasharray="2 5" stroke-linecap="round" points="432.0,168.7 438.0,170.6 444.0,172.5 450.0,174.3 456.0,176.2 462.0,178.0 468.0,179.7 474.0,181.5 480.0,183.2 486.0,184.8 492.0,186.4 498.0,188.0 504.0,189.5 510.0,190.9 516.0,192.3 522.0,193.7 528.0,194.9 534.0,196.1 540.0,197.3 546.0,198.4 552.0,199.4 558.0,200.4 564.0,201.3 570.0,202.2 576.0,203.0 582.0,203.8 588.0,204.5 594.0,205.1 600.0,205.7 606.0,206.3 612.0,206.8 618.0,207.3 624.0,207.7 630.0,208.1 636.0,208.5 642.0,208.9 648.0,209.2 654.0,209.5 660.0,209.8 666.0,210.1 672.0,210.4 678.0,210.7 684.0,211.0 690.0,211.3 696.0,211.6 702.0,211.9 708.0,212.3 714.0,212.7 720.0,213.1 726.0,213.5 732.0,214.0 738.0,214.5 744.0,215.0 750.0,215.6 756.0,216.3 762.0,217.0"/>
<line x1="432" y1="60" x2="432" y2="360" stroke="rgba(255,255,255,0.18)" stroke-dasharray="3 5"/>
<circle cx="70" cy="181.81883263023943" r="2.6" fill="#FF5C33"/><circle cx="94" cy="170.87619722014287" r="2.6" fill="#FF5C33"/><circle cx="118" cy="158.11030322192434" r="2.6" fill="#FF5C33"/><circle cx="142" cy="153.10222565693346" r="2.6" fill="#FF5C33"/><circle cx="166" cy="139.7766581209334" r="2.6" fill="#FF5C33"/><circle cx="190" cy="139.51950092009318" r="2.6" fill="#FF5C33"/><circle cx="214" cy="129.87020467057707" r="2.6" fill="#FF5C33"/><circle cx="238" cy="131.68426587372088" r="2.6" fill="#FF5C33"/><circle cx="262" cy="129.24613429010586" r="2.6" fill="#FF5C33"/><circle cx="286" cy="130.79635478966733" r="2.6" fill="#FF5C33"/><circle cx="310" cy="136.51041888243537" r="2.6" fill="#FF5C33"/><circle cx="334" cy="137.1998142000865" r="2.6" fill="#FF5C33"/><circle cx="358" cy="148.77615846531143" r="2.6" fill="#FF5C33"/><circle cx="382" cy="149.88502477619195" r="2.6" fill="#FF5C33"/><circle cx="406" cy="162.82271528919688" r="2.6" fill="#FF5C33"/><circle cx="430" cy="166.36921863086636" r="2.6" fill="#FF5C33"/>
</svg>